<svg xmlns="http://www.w3.org/2000/svg" viewBox="0 0 880 224" font-family="'Noto Sans KR','Malgun Gothic','Apple SD Gothic Neo',sans-serif">
  <path d="M 18,0 H 860 Q 880,0 880,20 V 207 Q 880,224 863,224 H 19 Q 0,224 0,205 V 18 Q 0,0 18,0 Z" fill="#FBFBF7" stroke="rgba(47,58,57,0.25)"/>
  <text x="36" y="48" font-size="21" font-weight="700" fill="#243130">텔레파시 <tspan font-size="14" font-weight="500" fill="#2F3A39">— 실시간 소켓 기반 팀 웹 서비스</tspan></text>
  <path d="M 736,24 H 833 Q 844,24 844,35 V 45 Q 844,54 835,54 H 736 Q 726,54 726,44 V 34 Q 726,24 736,24 Z" fill="#C8443C"/>
  <text x="785" y="44" text-anchor="middle" font-size="12" font-weight="700" fill="#FBFBF7" letter-spacing="1">TEAM PROJECT</text>
  <text x="36" y="86" font-size="13.5" fill="#2F3A39"><tspan fill="#C8443C" font-weight="700">✓</tspan>  JavaScript → TypeScript 전면 마이그레이션 — 프론트·서버가 공유하는 타입 계약 레이어 설계</text>
  <text x="36" y="112" font-size="13.5" fill="#2F3A39"><tspan fill="#C8443C" font-weight="700">✓</tspan>  소켓 인증 도입, 결제 검증 서버 일원화 등 보안 취약점 진단·개선 주도</text>
  <text x="36" y="138" font-size="13.5" fill="#2F3A39"><tspan fill="#C8443C" font-weight="700">✓</tspan>  아키텍처 역산 문서화 + 기술 블로그 '아키텍처 시리즈' 5편 연재</text>
  <path d="M 50,166 H 91 Q 106,166 106,181 V 183 Q 106,196 93,196 H 50 Q 36,196 36,182 V 180 Q 36,166 50,166 Z" fill="#C8E9E4" stroke="rgba(47,58,57,0.25)"/>
  <text x="71" y="186" text-anchor="middle" font-size="13.5" font-weight="500" fill="#2F3A39">React</text>
  <path d="M 130,166 H 211 Q 226,166 226,181 V 183 Q 226,196 213,196 H 130 Q 116,196 116,182 V 180 Q 116,166 130,166 Z" fill="#C8E9E4" stroke="rgba(47,58,57,0.25)"/>
  <text x="171" y="186" text-anchor="middle" font-size="13.5" font-weight="500" fill="#2F3A39">TypeScript</text>
  <path d="M 250,166 H 323 Q 338,166 338,181 V 183 Q 338,196 325,196 H 250 Q 236,196 236,182 V 180 Q 236,166 250,166 Z" fill="#C8E9E4" stroke="rgba(47,58,57,0.25)"/>
  <text x="287" y="186" text-anchor="middle" font-size="13.5" font-weight="500" fill="#2F3A39">Socket.IO</text>
  <path d="M 362,166 H 419 Q 434,166 434,181 V 183 Q 434,196 421,196 H 362 Q 348,196 348,182 V 180 Q 348,166 362,166 Z" fill="#C8E9E4" stroke="rgba(47,58,57,0.25)"/>
  <text x="391" y="186" text-anchor="middle" font-size="13.5" font-weight="500" fill="#2F3A39">Node.js</text>
  <path d="M 458,166 H 539 Q 554,166 554,181 V 183 Q 554,196 541,196 H 458 Q 444,196 444,182 V 180 Q 444,166 458,166 Z" fill="#C8E9E4" stroke="rgba(47,58,57,0.25)"/>
  <text x="499" y="186" text-anchor="middle" font-size="13.5" font-weight="500" fill="#2F3A39">PostgreSQL</text>
</svg>
