<svg xmlns="http://www.w3.org/2000/svg" viewBox="0 0 880 224" font-family="'Noto Sans KR','Malgun Gothic','Apple SD Gothic Neo',sans-serif">
  <path d="M 18,0 H 860 Q 880,0 880,20 V 207 Q 880,224 863,224 H 19 Q 0,224 0,205 V 18 Q 0,0 18,0 Z" fill="#243130" stroke="rgba(200,233,228,0.35)"/>
  <text x="36" y="48" font-size="21" font-weight="700" fill="#FBFBF7">텔레파시 <tspan font-size="14" font-weight="500" fill="#C8E9E4">— 실시간 소켓 기반 팀 웹 서비스</tspan></text>
  <path d="M 736,24 H 833 Q 844,24 844,35 V 45 Q 844,54 835,54 H 736 Q 726,54 726,44 V 34 Q 726,24 736,24 Z" fill="#C8443C"/>
  <text x="785" y="44" text-anchor="middle" font-size="12" font-weight="700" fill="#FBFBF7" letter-spacing="1">TEAM PROJECT</text>
  <text x="36" y="86" font-size="13.5" fill="#C8E9E4"><tspan fill="#C8443C" font-weight="700">✓</tspan>  화면 전환 시 중복 API 호출 — TanStack Query 캐싱으로 요청 15건 → 6건 (−60%)</text>
  <text x="36" y="112" font-size="13.5" fill="#C8E9E4"><tspan fill="#C8443C" font-weight="700">✓</tspan>  폼 타이핑당 리렌더 — React Hook Form 전환으로 글자당 1.0회 → 0회 (−100%)</text>
  <text x="36" y="138" font-size="13.5" fill="#C8E9E4"><tspan fill="#C8443C" font-weight="700">✓</tspan>  1초 주기 폴링 — Socket.IO push 전환으로 요청 59건/분 → ≈0 (−100%)</text>
  <path d="M 50,166 H 91 Q 106,166 106,181 V 183 Q 106,196 93,196 H 50 Q 36,196 36,182 V 180 Q 36,166 50,166 Z" fill="#2F4A46" stroke="rgba(200,233,228,0.35)"/>
  <text x="71" y="186" text-anchor="middle" font-size="13.5" font-weight="500" fill="#C8E9E4">React</text>
  <path d="M 130,166 H 211 Q 226,166 226,181 V 183 Q 226,196 213,196 H 130 Q 116,196 116,182 V 180 Q 116,166 130,166 Z" fill="#2F4A46" stroke="rgba(200,233,228,0.35)"/>
  <text x="171" y="186" text-anchor="middle" font-size="13.5" font-weight="500" fill="#C8E9E4">TypeScript</text>
  <path d="M 250,166 H 323 Q 338,166 338,181 V 183 Q 338,196 325,196 H 250 Q 236,196 236,182 V 180 Q 236,166 250,166 Z" fill="#2F4A46" stroke="rgba(200,233,228,0.35)"/>
  <text x="287" y="186" text-anchor="middle" font-size="13.5" font-weight="500" fill="#C8E9E4">Socket.IO</text>
  <path d="M 362,166 H 419 Q 434,166 434,181 V 183 Q 434,196 421,196 H 362 Q 348,196 348,182 V 180 Q 348,166 362,166 Z" fill="#2F4A46" stroke="rgba(200,233,228,0.35)"/>
  <text x="391" y="186" text-anchor="middle" font-size="13.5" font-weight="500" fill="#C8E9E4">Node.js</text>
  <path d="M 458,166 H 539 Q 554,166 554,181 V 183 Q 554,196 541,196 H 458 Q 444,196 444,182 V 180 Q 444,166 458,166 Z" fill="#2F4A46" stroke="rgba(200,233,228,0.35)"/>
  <text x="499" y="186" text-anchor="middle" font-size="13.5" font-weight="500" fill="#C8E9E4">PostgreSQL</text>
</svg>
